<svg xmlns="http://www.w3.org/2000/svg" xmlns:xlink="http://www.w3.org/1999/xlink" aria-hidden="true" role="img" class="iconify iconify--logos" width="31.88" height="32" preserveAspectRatio="xMidYMid meet" viewBox="0 0 256 257"><defs><linearGradient id="IconifyId1813088fe1fbc5166c" x1="-.828%" x2="57.636%" y1="7.652%" y2="78.411%"><stop offset="0%" stop-color="#41D1FF"></stop><stop offset="100%" stop-color="#BD34FE"></stop></linearGradient><linearGradient id="IconifyId1813088fe1fbc5166d" x1="43.376%" x2="50.316%" y1="2.242%" y2="89.03%"><stop offset="0%" stop-color="#FFBD4F"></stop><stop offset="100%" stop-color="#FF980E"></stop></linearGradient></defs><path fill="url(#IconifyId1813088fe1fbc5166c)" d="M255.153 37.938L134.897 252.976c-2.483 4.44-8.862 4.466-11.382.048L.875 37.958c-2.746-4.814 1.371-10.646 6.827-9.67l120.385 21.517a6.537 6.537 0 0 0 2.322-.004l117.867-21.483c5.438-.991 9.574 4.796 6.877 9.62Z"></path><path fill="url(#IconifyId1813088fe1fbc5166d)" d="M185.432.063L96.44 17.501a3.268 3.268 0 0 0-2.634 3.012l-5.406 92.42a3.268 3.268 0 0 0 3.997 3.378l24.777-5.748c2.318-.537 4.413 1.507 3.921 3.838l-16.063 76.073c-.698 3.318 3.172 5.522 5.714 3.234l16.477-14.821c1.524-1.372 3.863-1.014 4.927.754l20.196 33.422c1.434 2.378 4.98 2.099 6.018-.472l25.57-63.47c1.291-3.2 5.672-3.1 6.822.158l6.547 18.474c1.016 2.866 4.55 3.794 6.846 1.416l22.33-23.141c1.693-1.754 1.764-4.509.158-6.345L191.453.855a3.268 3.268 0 0 0-6.02-.792Z"></path></svg>
